# xmcd CD database file
#
# Track frame offsets:
#	150
#	25317
#	58365
#	88085
#	116447
#	147435
#	177540
#	216312
#	238967
#	265615
#	295155
#
# Disc length: 4176 seconds
#
# Revision: 2
# Processed by: cddbd v1.5.2PL0 Copyright (c) Steve Scherf et al.
# Submitted via: CDex 1.70beta2
#
DISCID=af104e0b
DTITLE=布川俊樹 - スタンダード・ジャズ・プロジェクト
DYEAR=2009
DGENRE=Jazz-Guitar
TTITLE0=On A Clear Day
TTITLE1=Mona Lisa
TTITLE2=Moon River
TTITLE3=Autumn Leaves
TTITLE4=おいしい水
TTITLE5=You're The Sunshine Of My Life
TTITLE6=Round Midnight
TTITLE7=K.I.Blues
TTITLE8=Our Love Is Here To Stay
TTITLE9=I'll Remember April
TTITLE10=The Nearness Of You
EXTD=YEAR: 2009
EXTT0=
EXTT1=
EXTT2=
EXTT3=
EXTT4=
EXTT5=
EXTT6=
EXTT7=
EXTT8=
EXTT9=
EXTT10=
PLAYORDER=
